<?xml version="1.0" standalone="no"?>
<!DOCTYPE svg PUBLIC "-//W3C//DTD SVG 20010904//EN"
 "http://www.w3.org/TR/2001/REC-SVG-20010904/DTD/svg10.dtd">
<svg version="1.0" xmlns="http://www.w3.org/2000/svg"
 width="776.000000pt" height="776.000000pt" viewBox="0 0 776.000000 776.000000"
 preserveAspectRatio="xMidYMid meet">
<metadata>
Created by potrace 1.14, written by Peter Selinger 2001-2017
</metadata>
<g transform="translate(0.000000,776.000000) scale(0.100000,-0.100000)"
fill="#000000" stroke="none">
<path d="M3110 7749 c-83 -10 -124 -17 -156 -29 -16 -6 -30 -11 -32 -10 -9 4
-99 -31 -158 -61 -121 -63 -210 -136 -299 -244 -26 -33 -80 -81 -119 -108
-167 -115 -317 -333 -361 -527 0 -3 -6 -27 -13 -55 -25 -104 -22 -65 -37 -645
-4 -135 -8 -272 -10 -305 -13 -245 -16 -305 -20 -345 -2 -25 -7 -83 -10 -130
-4 -47 -8 -101 -10 -120 -2 -19 -6 -71 -10 -115 -3 -44 -8 -93 -10 -110 -2
-16 -7 -61 -11 -100 -3 -38 -8 -77 -9 -85 -2 -8 -6 -51 -11 -95 -4 -44 -8 -82
-9 -85 -1 -3 -5 -40 -9 -83 -8 -77 -9 -78 -55 -114 -50 -40 -108 -109 -135
-160 -11 -22 -37 -43 -85 -68 -65 -34 -171 -124 -171 -145 0 -5 5 -12 11 -15
7 -5 6 -12 -3 -23 -59 -73 -91 -194 -91 -347 0 -143 19 -205 86 -278 43 -47
137 -102 215 -125 23 -7 42 -19 42 -26 0 -7 -20 -112 -44 -232 -44 -215 -68
-329 -166 -769 -27 -122 -51 -232 -54 -245 -2 -14 -11 -56 -20 -95 -9 -38 -18
-81 -20 -95 -2 -14 -9 -45 -15 -70 -5 -25 -12 -58 -15 -75 -3 -16 -8 -41 -11
-55 -3 -14 -9 -50 -15 -80 -5 -30 -12 -68 -15 -85 -14 -80 -25 -157 -31 -206
-3 -30 -7 -70 -9 -89 -6 -49 -6 -254 0 -320 25 -268 104 -470 234 -599 90 -90
197 -144 331 -166 47 -8 204 -8 265 0 126 16 281 74 385 144 25 16 84 42 130
57 158 49 264 111 378 218 169 160 299 428 337 699 3 20 8 54 11 75 6 42 13
242 14 380 l0 92 29 0 c92 0 188 89 206 191 3 18 8 36 11 41 3 5 6 66 6 136
-1 106 -11 218 -37 392 -2 14 -6 43 -9 65 -7 53 -27 185 -32 209 -2 10 -6 44
-10 75 -3 31 -12 93 -19 139 -11 74 -12 103 -6 193 1 19 7 25 24 25 33 1 160
15 167 19 3 1 34 6 70 9 36 4 72 9 80 11 19 5 63 13 115 20 22 3 94 19 160 36
66 16 129 31 139 34 94 23 318 110 422 165 44 23 124 59 179 81 177 70 320
149 435 238 47 36 170 157 205 201 70 87 138 215 173 326 18 54 25 85 47 199
12 58 14 280 4 325 -6 25 -12 54 -15 64 -40 199 -247 390 -458 424 -96 15
-328 -8 -385 -38 -9 -5 -43 -21 -76 -36 -33 -15 -89 -45 -125 -67 -305 -187
-440 -256 -650 -334 -77 -29 -212 -73 -223 -73 -8 0 -7 9 23 165 11 55 21 111
24 125 2 14 7 36 10 50 3 14 8 36 10 50 5 31 114 577 121 606 5 20 12 22 102
24 54 1 116 3 138 5 22 1 95 6 163 10 67 3 132 8 145 10 12 2 58 6 102 10 44
4 94 8 110 10 17 2 53 7 80 10 52 6 162 23 205 31 14 2 41 7 60 10 19 3 43 7
52 10 10 3 30 7 44 10 215 39 445 129 623 243 52 34 98 61 102 61 19 0 182 83
249 127 208 136 378 368 442 603 31 112 31 309 0 407 -62 200 -221 355 -418
409 -107 29 -315 18 -524 -27 -44 -9 -161 -42 -210 -59 -106 -36 -208 -73
-225 -81 -11 -5 -85 -34 -165 -65 -402 -155 -624 -209 -886 -213 -150 -3 -157
0 -195 67 -160 285 -457 429 -799 391z"/>
</g>
</svg>
